<svg width="512" height="512" viewBox="0 0 512 512" fill="none" xmlns="http://www.w3.org/2000/svg">
  <rect width="512" height="512" rx="64" fill="#1976d2"/>
  <path d="M256 128C208.872 128 171 165.872 171 213C171 234.62 179.845 254.153 194.133 267.2L193 341H319L317.867 267.2C332.155 254.153 341 234.62 341 213C341 165.872 303.128 128 256 128ZM256 171C280.301 171 299 189.699 299 213C299 223.783 294.891 233.687 287.733 240.8L289 299H223L224.267 240.8C217.109 233.687 213 223.783 213 213C213 189.699 231.699 171 256 171Z" fill="white"/>
  <circle cx="256" cy="384" r="21" fill="white"/>
</svg>
