<svg width="192" height="192" viewBox="0 0 192 192" fill="none" xmlns="http://www.w3.org/2000/svg">
  <rect width="192" height="192" rx="24" fill="#1976d2"/>
  <path d="M96 48C78.3269 48 64 62.3269 64 80C64 87.732 67.1908 94.6824 72.4 99.6L72 128H120L119.6 99.6C124.809 94.6824 128 87.732 128 80C128 62.3269 113.673 48 96 48ZM96 64C104.837 64 112 71.1634 112 80C112 84.418 110.209 88.3826 107.2 91.2L108 112H84L84.8 91.2C81.791 88.3826 80 84.418 80 80C80 71.1634 87.1634 64 96 64Z" fill="white"/>
  <circle cx="96" cy="144" r="8" fill="white"/>
</svg>
